Normalized EMG Linear Envelopes
nRows=112
nColumns=4

endheader
time	 med_gas_r	  soleus_r	 tib_ant_r	
2.79133	  0.066132	  0.038950	  0.015111	
2.8629	  0.064173	  0.037346	  0.012868	
2.93448	  0.063370	  0.036915	  0.011396	
3.00605	  0.064296	  0.037659	  0.010944	
3.07762	  0.065993	  0.038457	  0.011187	
3.14919	  0.066935	  0.038488	  0.011654	
3.22077	  0.066779	  0.038042	  0.012073	
3.29234	  0.066003	  0.037604	  0.012295	
3.36391	  0.064809	  0.037091	  0.012193	
3.43548	  0.063204	  0.036434	  0.011829	
3.50706	  0.061717	  0.036114	  0.011479	
3.57863	  0.061665	  0.036591	  0.011406	
3.6502	  0.064108	  0.037697	  0.011618	
3.72177	  0.068031	  0.038891	  0.011905	
3.79335	  0.070333	  0.039319	  0.012117	
3.86492	  0.068945	  0.038107	  0.012279	
3.93649	  0.065222	  0.035712	  0.012429	
4.00806	  0.062217	  0.033960	  0.012564	
4.07964	  0.061964	  0.034095	  0.012743	
4.15121	  0.064326	  0.035772	  0.013021	
4.22278	  0.066972	  0.037915	  0.013325	
4.29435	  0.067389	  0.039735	  0.013520	
4.36593	  0.065494	  0.040967	  0.013569	
4.4375	  0.063278	  0.041381	  0.013459	
4.50907	  0.062574	  0.040483	  0.013083	
4.58065	  0.063972	  0.038494	  0.012477	
4.65222	  0.066521	  0.036791	  0.011998	
4.72379	  0.068034	  0.036359	  0.011904	
4.79536	  0.067070	  0.036600	  0.012020	
4.86694	  0.064339	  0.036033	  0.012001	
4.93851	  0.060884	  0.033522	  0.011580	
5.01008	  0.056112	  0.029026	  0.010648	
5.08165	  0.050566	  0.024492	  0.009839	
5.15323	  0.052051	  0.025774	  0.011409	
5.2248	  0.080165	  0.044494	  0.019103	
5.29637	  0.160153	  0.093935	  0.035753	
5.36794	  0.296074	  0.174405	  0.058902	
5.43952	  0.448129	  0.264032	  0.080282	
5.51109	  0.558413	  0.334102	  0.093584	
5.58266	  0.603006	  0.372041	  0.100330	
5.65423	  0.605442	  0.386328	  0.104528	
5.72581	  0.603417	  0.394094	  0.107188	
5.79738	  0.614742	  0.402356	  0.108902	
5.86895	  0.636284	  0.402064	  0.110841	
5.94052	  0.660964	  0.386733	  0.111834	
6.0121	  0.685731	  0.369711	  0.109886	
6.08367	  0.712155	  0.372638	  0.106052	
6.15524	  0.741980	  0.399814	  0.103672	
6.22681	  0.770802	  0.434404	  0.105465	
6.29839	  0.793204	  0.461981	  0.112001	
6.36996	  0.806314	  0.484000	  0.120787	
6.44153	  0.801844	  0.502440	  0.126964	
6.5131	  0.771414	  0.508975	  0.126905	
6.58468	  0.722453	  0.498912	  0.121339	
6.65625	  0.678877	  0.482082	  0.113970	
6.72782	  0.667751	  0.471895	  0.107793	
6.7994	  0.698426	  0.470386	  0.103823	
6.87097	  0.751077	  0.468913	  0.102296	
6.94254	  0.791754	  0.461213	  0.103540	
7.01411	  0.795235	  0.450478	  0.107184	
7.08569	  0.760698	  0.444062	  0.111434	
7.15726	  0.714089	  0.446102	  0.113903	
7.22883	  0.686810	  0.454560	  0.113158	
7.3004	  0.687952	  0.462478	  0.109893	
7.37198	  0.696033	  0.463324	  0.106215	
7.44355	  0.682188	  0.456844	  0.103693	
7.51512	  0.645795	  0.448067	  0.103092	
7.58669	  0.612344	  0.440694	  0.104122	
7.65827	  0.600288	  0.434532	  0.104761	
7.72984	  0.611418	  0.430197	  0.103823	
7.80141	  0.640777	  0.433459	  0.102953	
7.87298	  0.677285	  0.449213	  0.103632	
7.94456	  0.705454	  0.470594	  0.105058	
8.01613	  0.718063	  0.481675	  0.105883	
8.0877	  0.722113	  0.473024	  0.105617	
8.15927	  0.725914	  0.449973	  0.104440	
8.23085	  0.726639	  0.426674	  0.102707	
8.30242	  0.718289	  0.415531	  0.100605	
8.37399	  0.702954	  0.420129	  0.098244	
8.44556	  0.685956	  0.434821	  0.095958	
8.51714	  0.668566	  0.450044	  0.094491	
8.58871	  0.650797	  0.458078	  0.094797	
8.66028	  0.636996	  0.455169	  0.097401	
8.73185	  0.633650	  0.441193	  0.101880	
8.80343	  0.638665	  0.420264	  0.106423	
8.875	  0.641077	  0.402242	  0.107943	
8.94657	  0.634113	  0.398336	  0.104523	
9.01815	  0.619124	  0.409578	  0.098111	
9.08972	  0.602273	  0.425433	  0.093199	
9.16129	  0.591746	  0.437619	  0.092148	
9.23286	  0.589814	  0.444315	  0.092608	
9.30444	  0.590577	  0.442313	  0.091287	
9.37601	  0.589467	  0.431279	  0.088988	
9.44758	  0.588242	  0.420300	  0.088892	
9.51915	  0.588639	  0.416459	  0.091652	
9.59073	  0.586153	  0.414635	  0.094819	
9.6623	  0.575207	  0.403451	  0.095762	
9.73387	  0.557695	  0.376276	  0.094086	
9.80544	  0.537977	  0.340599	  0.091629	
9.87702	  0.516505	  0.313032	  0.090060	
9.94859	  0.494159	  0.298978	  0.088733	
10.0202	  0.467966	  0.288090	  0.085457	
10.0917	  0.422716	  0.267407	  0.078532	
10.1633	  0.344165	  0.227942	  0.067616	
10.2349	  0.242287	  0.170590	  0.054446	
10.3065	  0.150231	  0.111002	  0.042718	
10.378	  0.095453	  0.067449	  0.035526	
10.4496	  0.078832	  0.046145	  0.033034	
10.5212	  0.082985	  0.042097	  0.033168	
10.5927	  0.090879	  0.047171	  0.035074	
10.6643	  0.094818	  0.055571	  0.040686	
10.7359	  0.094700	  0.064548	  0.050415	
